# xmcd
#
# Track frame offsets:
# 150
# 6504
# 21787
# 38327
# 52567
#
# Disc length: 1015 seconds
#
# Revision: 0
# Processed by: cddbd v1.4PL0 Copyright (c) Steve Scherf et al.
# Submitted via: Audion 3.0.2 (http://www.panic.com/audion/)
#
DISCID=2903f505
DTITLE=Oziris - Stillness to the Marrow
DYEAR=1900
DGENRE=
TTITLE0=Skinny, Smellyhead and Paleboy
TTITLE1=Marie Christine
TTITLE2=The Crows
TTITLE3=Pumpkin
TTITLE4=Stillness to the Marrow
EXTD=
EXTT0=
EXTT1=
EXTT2=
EXTT3=
EXTT4=
PLAYORDER=
